<svg id="Layer_1" data-name="Layer 1" xmlns="http://www.w3.org/2000/svg" viewBox="0 0 60 60"><defs><style>.cls-1{fill:#222;}.cls-2{fill:#fff;}</style></defs><title>Artboard 1</title><rect class="cls-1" width="60" height="60"/><path class="cls-2" d="M10.31,8.94a6.51,6.51,0,0,0,3,1.06H46.66a6.49,6.49,0,0,0,3-1.06,2.68,2.68,0,0,1,4,2.35V48A2.68,2.68,0,0,1,51,50.67H9A2.68,2.68,0,0,1,6.33,48V11.29A2.68,2.68,0,0,1,10.31,8.94Z"/><rect class="cls-1" x="25.08" y="25.35" width="13.19" height="8" rx="4" ry="4" transform="translate(-11.48 30.99) rotate(-45)"/><rect class="cls-1" x="21.42" y="25.34" width="13.17" height="8" rx="4" ry="4" transform="translate(28.95 -11.21) rotate(45)"/></svg>